<svg width="32" height="32" viewBox="0 0 32 32" fill="none" xmlns="http://www.w3.org/2000/svg">
<path fill-rule="evenodd" clip-rule="evenodd" d="M15.0769 5.84615C9.46865 5.84615 4.92306 10.3917 4.92306 16C4.92306 21.6071 9.46872 26.1538 15.0769 26.1538C20.6852 26.1538 25.2308 21.6071 25.2308 16C25.2308 10.3917 20.6852 5.84615 15.0769 5.84615ZM3.0769 16C3.0769 9.37215 8.44905 4 15.0769 4C21.7047 4 27.0769 9.37215 27.0769 16C27.0769 22.6266 21.7048 28 15.0769 28C8.44898 28 3.0769 22.6266 3.0769 16Z" fill="#F4F4F4" style="fill:#F4F4F4;fill:color(display-p3 0.9585 0.9585 0.9585);fill-opacity:1;"/>
<path fill-rule="evenodd" clip-rule="evenodd" d="M14.6731 10.863C15.1829 10.863 15.5962 11.2763 15.5962 11.7861V16.3063L19.054 18.3727C19.4917 18.6343 19.6344 19.201 19.3729 19.6387C19.1114 20.0762 18.5446 20.219 18.1069 19.9575L14.1995 17.6223C13.9207 17.4557 13.75 17.1549 13.75 16.83V11.7861C13.75 11.2763 14.1633 10.863 14.6731 10.863Z" fill="#F4F4F4" style="fill:#F4F4F4;fill:color(display-p3 0.9585 0.9585 0.9585);fill-opacity:1;"/>
</svg>
