<svg width="32" height="32" viewBox="0 0 32 32" fill="none" xmlns="http://www.w3.org/2000/svg">
<path d="M26.8659 19.0679C26.8659 20.862 24.0469 22.3175 20.5703 22.3175C17.0936 22.3175 14.2759 20.862 14.2759 19.0679" stroke="#F4F4F4" style="stroke:#F4F4F4;stroke:color(display-p3 0.9585 0.9585 0.9585);stroke-opacity:1;" stroke-width="2" stroke-linecap="round" stroke-linejoin="round"/>
<path d="M11.4309 16.1821C7.95423 16.1821 5.13525 14.7278 5.13525 12.9324" stroke="#F4F4F4" style="stroke:#F4F4F4;stroke:color(display-p3 0.9585 0.9585 0.9585);stroke-opacity:1;" stroke-width="2" stroke-linecap="round" stroke-linejoin="round"/>
<path d="M5.13525 7.25024V18.6168C5.13525 20.4122 7.95423 21.8664 11.4309 21.8664" stroke="#F4F4F4" style="stroke:#F4F4F4;stroke:color(display-p3 0.9585 0.9585 0.9585);stroke-opacity:1;" stroke-width="2" stroke-linecap="round" stroke-linejoin="round"/>
<path d="M11.4309 10.4996C7.95423 10.4996 5.13525 9.04532 5.13525 7.2499C5.13525 5.45578 7.95423 4.00024 11.4309 4.00024C14.9076 4.00024 17.7265 5.45578 17.7265 7.2499" stroke="#F4F4F4" style="stroke:#F4F4F4;stroke:color(display-p3 0.9585 0.9585 0.9585);stroke-opacity:1;" stroke-width="2" stroke-linecap="round" stroke-linejoin="round"/>
<path d="M26.8659 13.3855V24.752C26.8659 26.5474 24.0469 28.0016 20.5703 28.0016C17.0936 28.0016 14.2759 26.5474 14.2759 24.752V13.3855" stroke="#F4F4F4" style="stroke:#F4F4F4;stroke:color(display-p3 0.9585 0.9585 0.9585);stroke-opacity:1;" stroke-width="2" stroke-linecap="round" stroke-linejoin="round"/>
<path fill-rule="evenodd" clip-rule="evenodd" d="M26.8659 13.3852C26.8659 15.1793 24.0469 16.6349 20.5703 16.6349C17.0936 16.6349 14.2759 15.1793 14.2759 13.3852C14.2759 11.591 17.0936 10.1355 20.5703 10.1355C24.0469 10.1355 26.8659 11.591 26.8659 13.3852Z" stroke="#F4F4F4" style="stroke:#F4F4F4;stroke:color(display-p3 0.9585 0.9585 0.9585);stroke-opacity:1;" stroke-width="2" stroke-linecap="round" stroke-linejoin="round"/>
</svg>
