<svg width="32" height="32" viewBox="0 0 32 32" fill="none" xmlns="http://www.w3.org/2000/svg">
<path d="M21.3865 25.8584C20.8398 25.8584 20.2931 25.4849 19.9865 25.1249C19.6398 24.7516 19.0131 23.8049 18.5598 23.0982C18.2531 22.6316 18.3865 22.0182 18.8531 21.7116C19.3198 21.4182 19.9331 21.5381 20.2398 22.0048C20.8131 22.8848 21.2931 23.5782 21.4931 23.8049C21.5065 23.8182 21.5198 23.8316 21.5065 23.8316C23.5998 23.5516 25.1331 22.925 26.3331 21.8584C26.8531 21.405 27.0265 21.0316 26.9865 20.4982C26.7465 17.2982 26.0398 14.2584 24.8265 11.2183C24.3731 10.0983 23.5998 9.35143 22.5065 8.9781C21.6931 8.63143 20.8931 8.40473 20.1331 8.27139L19.9198 8.23169C19.7598 8.20502 19.5865 8.17827 19.4531 8.15161C19.4131 8.28494 19.3731 8.43163 19.3465 8.51163C19.2131 8.99163 18.7465 9.3117 18.2531 9.24503C16.7598 9.04503 15.2265 9.04503 13.7331 9.24503C13.2398 9.32503 12.7598 9.00497 12.6398 8.51163C12.6131 8.43163 12.5731 8.28494 12.5331 8.15161C12.3998 8.16494 12.2265 8.20502 12.0665 8.23169L11.8398 8.27139C11.0931 8.40473 10.2931 8.63141 9.53313 8.95141C8.37313 9.35141 7.5998 10.0983 7.14647 11.2183C5.93313 14.2584 5.22647 17.2849 4.98647 20.4982C4.94647 21.0316 5.1198 21.405 5.6398 21.8584C6.85313 22.9384 8.38647 23.5649 10.4531 23.8316C10.6665 23.6049 10.9865 23.1781 11.7465 22.0048C12.0531 21.5381 12.6665 21.4049 13.1331 21.7116C13.5998 22.0182 13.7331 22.6316 13.4265 23.0982C12.7198 24.1782 12.2665 24.8316 11.9731 25.1382C11.6398 25.5249 10.9998 25.9382 10.3465 25.8316C7.85313 25.5382 5.86647 24.7248 4.3198 23.3514C3.34647 22.4981 2.90647 21.5114 2.9998 20.3381C3.26647 16.9248 4.01313 13.6982 5.30647 10.4716C5.97313 8.80493 7.1998 7.64487 8.8398 7.08487C9.66647 6.73821 10.6131 6.45809 11.5198 6.29809L11.7465 6.25838C13.1598 6.01838 13.8265 6.11162 14.2931 7.16495C15.4265 7.05829 16.5598 7.05829 17.7065 7.16495C18.1731 6.11162 18.8398 6.00505 20.2665 6.25838L20.4798 6.29809C21.3865 6.45809 22.3331 6.73823 23.2265 7.11157C24.7998 7.6449 26.0265 8.81826 26.6931 10.4716C27.9865 13.6982 28.7331 16.9248 28.9998 20.3381C29.0931 21.4981 28.6531 22.4848 27.6798 23.3514C26.1331 24.7248 24.1465 25.5382 21.5998 25.8316C21.5331 25.8316 21.4665 25.8449 21.3998 25.8449L21.3865 25.8584ZM21.3865 23.8584C21.3865 23.8584 21.3331 23.8584 21.3065 23.8584C21.3331 23.8584 21.3598 23.8584 21.3865 23.8584ZM10.6265 23.8584C10.6265 23.8584 10.6531 23.8584 10.6665 23.8584C10.6531 23.8584 10.6398 23.8584 10.6265 23.8584Z" fill="#F4F4F4" style="fill:#F4F4F4;fill:color(display-p3 0.9585 0.9585 0.9585);fill-opacity:1;"/>
<path d="M16 24.0712C13.6667 24.0712 11.3334 23.3777 9.01336 22.0044C8.53336 21.7244 8.38669 21.111 8.66669 20.631C8.94669 20.151 9.56003 20.0044 10.04 20.2844C14.0533 22.671 17.9467 22.671 21.96 20.2844C22.44 20.0044 23.0533 20.1644 23.3333 20.631C23.6133 21.111 23.4667 21.7244 22.9867 22.0044C20.6667 23.391 18.3333 24.0712 16 24.0712Z" fill="#F4F4F4" style="fill:#F4F4F4;fill:color(display-p3 0.9585 0.9585 0.9585);fill-opacity:1;"/>
<path d="M12.2128 18.951C10.7461 18.951 9.54614 17.6178 9.54614 15.9911C9.54614 14.3644 10.7461 13.0444 12.2128 13.0444C13.6795 13.0444 14.8795 14.3644 14.8795 15.9911C14.8795 17.6178 13.6795 18.951 12.2128 18.951ZM12.2128 15.0444C11.8528 15.0444 11.5461 15.4844 11.5461 15.9911C11.5461 16.5511 11.8928 16.951 12.2128 16.951C12.5728 16.951 12.8795 16.4978 12.8795 15.9911C12.8795 15.4844 12.5728 15.0444 12.2128 15.0444Z" fill="#F4F4F4" style="fill:#F4F4F4;fill:color(display-p3 0.9585 0.9585 0.9585);fill-opacity:1;"/>
<path d="M19.7858 18.951C18.3191 18.951 17.1191 17.6178 17.1191 15.9911C17.1191 14.3644 18.3191 13.0444 19.7858 13.0444C21.2525 13.0444 22.4525 14.3644 22.4525 15.9911C22.4525 17.6178 21.2525 18.951 19.7858 18.951ZM19.7858 15.0444C19.4258 15.0444 19.1191 15.4844 19.1191 15.9911C19.1191 16.4978 19.4258 16.951 19.7858 16.951C20.1458 16.951 20.4525 16.4978 20.4525 15.9911C20.4525 15.4844 20.1458 15.0444 19.7858 15.0444Z" fill="#F4F4F4" style="fill:#F4F4F4;fill:color(display-p3 0.9585 0.9585 0.9585);fill-opacity:1;"/>
</svg>
