<svg width="32" height="32" viewBox="0 0 32 32" fill="none" xmlns="http://www.w3.org/2000/svg">
<path d="M10.3762 4H21.6225C25.5533 4 28 6.77492 28 10.7018V21.2981C28 25.2251 25.5533 28 21.6212 28H10.3762C6.4454 28 4 25.2251 4 21.2981V10.7018C4 6.77492 6.45708 4 10.3762 4Z" stroke="#F4F4F4" style="stroke:#F4F4F4;stroke:color(display-p3 0.9585 0.9585 0.9585);stroke-opacity:1;" stroke-width="2" stroke-linecap="round" stroke-linejoin="round"/>
<path d="M15.7926 11.771C13.2136 11.771 11.1223 13.8623 11.1223 16.4412C11.1223 19.0203 13.2136 21.1115 15.7926 21.1115C18.3716 21.1115 20.4628 19.0203 20.4628 16.4412C20.4628 13.8623 18.3716 11.771 15.7926 11.771Z" stroke="#F4F4F4" style="stroke:#F4F4F4;stroke:color(display-p3 0.9585 0.9585 0.9585);stroke-opacity:1;" stroke-width="2" stroke-linecap="round" stroke-linejoin="round"/>
<path d="M22.4881 9.81848V9.91048M22.8641 9.8385C22.8641 10.0478 22.6948 10.2172 22.4855 10.2172C22.2761 10.2172 22.1055 10.0478 22.1055 9.8385C22.1055 9.62916 22.2761 9.4585 22.4855 9.4585C22.6948 9.4585 22.8641 9.62916 22.8641 9.8385Z" stroke="#F4F4F4" style="stroke:#F4F4F4;stroke:color(display-p3 0.9585 0.9585 0.9585);stroke-opacity:1;" stroke-width="2" stroke-linecap="round" stroke-linejoin="round"/>
</svg>
