<svg width="32" height="32" viewBox="0 0 32 32" fill="none" xmlns="http://www.w3.org/2000/svg">
<g clip-path="url(#clip0_1201_7502)">
<path fill-rule="evenodd" clip-rule="evenodd" d="M15.5711 21.7538C15.8934 22.2023 15.791 22.8271 15.3424 23.1494L12.8698 24.9258L14.6591 27.4166C14.9814 27.8651 14.879 28.4899 14.4304 28.8122C13.9819 29.1343 13.3571 29.0319 13.0348 28.5834L10.662 25.2804C10.3398 24.8319 10.4422 24.2071 10.8907 23.8848L14.1755 21.5251C14.624 21.2028 15.249 21.3052 15.5711 21.7538Z" fill="#787878" style="fill:#787878;fill:color(display-p3 0.4698 0.4698 0.4698);fill-opacity:1;"/>
<path fill-rule="evenodd" clip-rule="evenodd" d="M9.10918 5.69136C9.31537 5.85818 9.44683 6.10009 9.47465 6.36385L9.89887 10.3855C9.95681 10.9348 9.55853 11.427 9.00929 11.4849C8.46006 11.5428 7.96785 11.1446 7.90991 10.5953L7.59059 7.56817L4.54007 7.89005C3.99085 7.948 3.49862 7.54973 3.44066 7.0005C3.38271 6.45126 3.78098 5.95904 4.33021 5.90109L8.37523 5.47428C8.63899 5.44644 8.90301 5.52453 9.10918 5.69136Z" fill="#787878" style="fill:#787878;fill:color(display-p3 0.4698 0.4698 0.4698);fill-opacity:1;"/>
<path fill-rule="evenodd" clip-rule="evenodd" d="M27.9851 8.42004C28.4866 8.65133 28.7056 9.2454 28.4744 9.74692L26.771 13.4403C26.5398 13.9418 25.9458 14.1609 25.4443 13.9298L21.7716 12.2367C21.27 12.0055 21.0508 11.4115 21.282 10.9099C21.5132 10.4084 22.1073 10.1892 22.6088 10.4204L25.3736 11.6949L26.6583 8.90933C26.8895 8.40781 27.4836 8.18875 27.9851 8.42004Z" fill="#787878" style="fill:#787878;fill:color(display-p3 0.4698 0.4698 0.4698);fill-opacity:1;"/>
<path fill-rule="evenodd" clip-rule="evenodd" d="M25.7385 16.942C26.2652 17.108 26.5576 17.6696 26.3916 18.1964C26.1513 18.9587 25.8201 19.7106 25.4128 20.4295C22.5612 25.457 16.5507 27.542 11.3071 25.6362C10.7881 25.4475 10.5202 24.8738 10.7089 24.3547C10.8975 23.8356 11.4713 23.5678 11.9903 23.7564C16.3339 25.3352 21.3119 23.6058 23.6729 19.4431C24.0152 18.839 24.2885 18.2156 24.4841 17.5952C24.6501 17.0684 25.2117 16.776 25.7385 16.942Z" fill="#787878" style="fill:#787878;fill:color(display-p3 0.4698 0.4698 0.4698);fill-opacity:1;"/>
<path fill-rule="evenodd" clip-rule="evenodd" d="M9.16032 5.97233C9.51796 6.39319 9.46671 7.02427 9.04587 7.38191C5.52407 10.3747 4.56393 15.5581 7.01304 19.6689C7.36653 20.2635 7.77409 20.8106 8.21712 21.2886C8.59255 21.6937 8.56852 22.3265 8.16347 22.7018C7.7584 23.0773 7.12569 23.0533 6.75027 22.6482C6.20733 22.0623 5.71665 21.4021 5.29435 20.6917C2.33689 15.7266 3.49927 9.47078 7.75075 5.85788C8.17159 5.50024 8.80268 5.55148 9.16032 5.97233Z" fill="#787878" style="fill:#787878;fill:color(display-p3 0.4698 0.4698 0.4698);fill-opacity:1;"/>
<path fill-rule="evenodd" clip-rule="evenodd" d="M15.272 5C14.5781 5 13.9012 5.06992 13.2641 5.20621C12.724 5.32172 12.1925 4.97756 12.077 4.43749C11.9615 3.89743 12.3057 3.36596 12.8457 3.25044C13.6279 3.08316 14.4453 3 15.272 3C21.052 3 25.8303 7.20027 26.7597 12.7019C26.8517 13.2464 26.4849 13.7624 25.9404 13.8544C25.3957 13.9464 24.8797 13.5796 24.7877 13.035C24.0177 8.47723 20.0573 5 15.272 5Z" fill="#787878" style="fill:#787878;fill:color(display-p3 0.4698 0.4698 0.4698);fill-opacity:1;"/>
</g>
<defs>
<clipPath id="clip0_1201_7502">
<rect width="32" height="32" fill="white" style="fill:white;fill-opacity:1;"/>
</clipPath>
</defs>
</svg>
