<svg width="32" height="32" viewBox="0 0 32 32" fill="none" xmlns="http://www.w3.org/2000/svg">
<path fill-rule="evenodd" clip-rule="evenodd" d="M16 5C9.92439 5 5 9.92439 5 16C5 22.0756 9.92439 27 16 27C22.0756 27 27 22.0756 27 16C27 9.92439 22.0756 5 16 5ZM3 16C3 8.81983 8.81983 3 16 3C23.1801 3 29 8.81983 29 16C29 23.1801 23.1801 29 16 29C8.81983 29 3 23.1801 3 16Z" fill="#F4F4F4" style="fill:#F4F4F4;fill:color(display-p3 0.9585 0.9585 0.9585);fill-opacity:1;"/>
<path fill-rule="evenodd" clip-rule="evenodd" d="M16.8539 8.93485C17.3382 8.85637 17.8078 9.14069 17.9627 9.60611C18.085 9.97317 18.407 10.5871 18.943 11.0958C19.4618 11.5883 20.1539 11.9602 21.0654 11.9602C21.6177 11.9602 22.0654 12.408 22.0654 12.9602C22.0654 13.5125 21.6177 13.9602 21.0654 13.9602C19.8053 13.9602 18.7889 13.5197 18.0139 12.9283V19.0394C18.0139 21.2741 16.2043 23.0777 13.9743 23.0777C11.7445 23.0777 9.93481 21.2741 9.93481 19.0394C9.93481 16.8037 11.7442 14.9998 13.9743 14.9998C14.5267 14.9998 14.9743 15.4476 14.9743 15.9998C14.9743 16.5521 14.5267 16.9998 13.9743 16.9998C12.8471 16.9998 11.9348 17.91 11.9348 19.0394C11.9348 20.1673 12.8469 21.0777 13.9743 21.0777C15.1019 21.0777 16.0139 20.1673 16.0139 19.0394V9.92197C16.0139 9.43145 16.3698 9.01334 16.8539 8.93485Z" fill="#F4F4F4" style="fill:#F4F4F4;fill:color(display-p3 0.9585 0.9585 0.9585);fill-opacity:1;"/>
</svg>
