<svg width="32" height="32" viewBox="0 0 32 32" fill="none" xmlns="http://www.w3.org/2000/svg">
<path fill-rule="evenodd" clip-rule="evenodd" d="M25.3732 5.8749C26.8719 6.31886 28.0157 7.53817 28.4007 9.06149C28.6233 9.75106 28.7656 10.8176 28.8572 11.9772C28.9532 13.1913 29.0003 14.607 29 16.0123C28.9997 17.4176 28.9521 18.8274 28.856 20.0294C28.7648 21.1696 28.6235 22.2212 28.3993 22.8935C28.0141 24.4095 26.8771 25.6235 25.3872 26.0703C25.0063 26.206 24.4711 26.2982 23.9015 26.369C23.2856 26.4456 22.5367 26.5076 21.7069 26.5564C20.0457 26.654 18.0187 26.7011 15.9988 26.6995C13.9788 26.698 11.9522 26.6479 10.2919 26.5495C9.46249 26.5003 8.7146 26.4386 8.09989 26.3631C7.53056 26.2934 6.99896 26.2035 6.62188 26.0732C5.15563 25.6483 4.02259 24.4816 3.60468 23.0047C3.37863 22.3214 3.23532 21.2504 3.14316 20.0859C3.04716 18.8726 2.99992 17.4544 3 16.044C3.00008 14.6336 3.04749 13.2165 3.14355 12.0051C3.23497 10.852 3.37671 9.7907 3.59989 9.10964C3.98467 7.58949 5.12277 6.37437 6.61724 5.92833C6.99524 5.79682 7.52928 5.70692 8.10056 5.63725C8.71532 5.56229 9.46323 5.50109 10.2925 5.45244C11.9525 5.35504 13.9787 5.30558 15.998 5.30241C18.0173 5.29922 20.0429 5.34229 21.702 5.43161C22.5308 5.47624 23.2775 5.53289 23.8907 5.60248C24.4672 5.6679 25.0004 5.75221 25.3732 5.8749ZM8.34265 7.62254C7.75804 7.69384 7.41191 7.76728 7.26735 7.81978C7.24684 7.82724 7.22611 7.83401 7.20516 7.8401C6.39056 8.07697 5.74528 8.7492 5.53269 9.62481C5.52556 9.65418 5.51711 9.68322 5.50735 9.71182C5.36536 10.1279 5.23089 10.9827 5.13728 12.1632C5.04632 13.3105 5.00008 14.6735 5 16.0442C4.99992 17.4148 5.046 18.7788 5.13693 19.928C5.23045 21.11 5.36503 21.9687 5.50787 22.3896C5.51405 22.4078 5.51971 22.4262 5.52483 22.4447C5.75879 23.2916 6.39964 23.9334 7.19661 24.1575C7.22029 24.1642 7.24371 24.1716 7.26684 24.18C7.41208 24.2327 7.75888 24.3063 8.34332 24.378C8.90119 24.4464 9.60379 24.5052 10.4102 24.553C12.0214 24.6484 14.0075 24.698 16.0003 24.6995C17.9932 24.7011 19.9788 24.6546 21.5896 24.5599C22.3957 24.5124 23.0976 24.4536 23.6545 24.3843C24.2388 24.3116 24.5821 24.2366 24.7236 24.1835C24.7469 24.1748 24.7707 24.167 24.7945 24.16C25.6081 23.9231 26.2548 23.2494 26.4673 22.375C26.4751 22.3435 26.4841 22.3124 26.4948 22.2819C26.6344 21.8818 26.7687 21.0422 26.8624 19.8699C26.9533 18.7326 26.9997 17.3775 27 16.012C27.0003 14.6466 26.9543 13.285 26.8635 12.1348C26.77 10.9531 26.6355 10.0875 26.4908 9.65582C26.4819 9.62905 26.474 9.60189 26.4673 9.57445C26.2548 8.69998 25.6081 8.02625 24.7945 7.78942C24.7807 7.78537 24.7668 7.78101 24.7531 7.77637C24.6024 7.72529 24.2503 7.65612 23.6652 7.58972C23.1056 7.52621 22.4016 7.47217 21.5945 7.42872C19.9817 7.34189 17.9944 7.29926 16.0011 7.3024C14.0076 7.30554 12.0211 7.35445 10.4096 7.44901C9.60305 7.49633 8.90047 7.55453 8.34265 7.62254Z" fill="#F4F4F4" style="fill:#F4F4F4;fill:color(display-p3 0.9585 0.9585 0.9585);fill-opacity:1;"/>
<path fill-rule="evenodd" clip-rule="evenodd" d="M12.5261 13.2432C12.5261 11.9971 13.8707 11.2104 14.9569 11.8277L19.8545 14.6125C20.9481 15.2365 20.9523 16.8176 19.8523 17.4418L14.9571 20.2254C13.8741 20.841 12.5261 20.0609 12.5261 18.8113V13.2432ZM14.5261 13.8834L18.2951 16.0266L14.5261 18.1698V13.8834Z" fill="#F4F4F4" style="fill:#F4F4F4;fill:color(display-p3 0.9585 0.9585 0.9585);fill-opacity:1;"/>
</svg>
