<svg width="195" height="48" viewBox="0 0 195 48" fill="none" xmlns="http://www.w3.org/2000/svg">
<g clip-path="url(#clip0_1200_6634)">
<path d="M67.2632 6.88794H84.7365V10.7179H71.8285V17.7638H83.3871V21.5574H71.8285V32.6676H67.2632V6.88794Z" fill="#F5F5F5" style="fill:#F5F5F5;fill:color(display-p3 0.9627 0.9627 0.9627);fill-opacity:1;"/>
<path d="M85.9809 24.1271V6.88818H90.5825V23.9494C90.5825 25.6745 91.1198 26.9956 92.1985 27.9127C93.2772 28.8298 94.6912 29.2863 96.4406 29.2863C98.1899 29.2863 99.5959 28.8298 100.691 27.9127C101.786 26.9956 102.335 25.6745 102.335 23.9494V6.88818H106.937V24.1271C106.937 27.0521 106.04 29.2782 104.25 30.8134C102.46 32.3487 99.8544 33.1163 96.4406 33.1163C93.0267 33.1163 90.4411 32.3487 88.6554 30.8134C86.8697 29.2782 85.9768 27.0521 85.9768 24.1271H85.9809Z" fill="#F5F5F5" style="fill:#F5F5F5;fill:color(display-p3 0.9627 0.9627 0.9627);fill-opacity:1;"/>
<path d="M115.966 10.7867H107.607V6.88403H128.963V10.7867H120.568V32.6637H115.966V10.7867Z" fill="#F5F5F5" style="fill:#F5F5F5;fill:color(display-p3 0.9627 0.9627 0.9627);fill-opacity:1;"/>
<path d="M129.884 6.88818H135.06L142.72 20.4062C144.336 23.307 145.471 25.5169 146.117 27.04H146.154C146.142 26.838 146.117 26.2967 146.081 25.424C146.045 24.5513 146.02 23.8363 146.008 23.2868C145.984 22.3293 145.972 21.2183 145.972 19.9618V6.88818H150.339V32.6678H145.071L137.306 18.9357C135.868 16.3823 134.801 14.2855 134.106 12.6453H134.033C134.082 13.5098 134.13 14.7986 134.179 16.5116C134.227 18.3337 134.252 19.3397 134.252 19.5336V32.6759H129.884V6.88818Z" fill="#F5F5F5" style="fill:#F5F5F5;fill:color(display-p3 0.9627 0.9627 0.9627);fill-opacity:1;"/>
<path d="M169.832 24.0906V24.6845H156.132C156.205 28.1104 157.761 29.8234 160.807 29.8234C163.384 29.8234 164.883 28.6963 165.299 26.4419L169.541 26.7651C169.085 28.8377 168.111 30.4133 166.62 31.492C165.13 32.5707 163.203 33.108 160.843 33.108C158.076 33.108 155.858 32.2555 154.193 30.5547C152.553 28.9144 151.729 26.5348 151.729 23.4199C151.729 20.5192 152.549 18.1759 154.193 16.3902C155.846 14.6651 158.051 13.8005 160.807 13.8005C162.257 13.8005 163.574 14.0631 164.762 14.5924C165.95 15.1216 166.936 15.8771 167.727 16.8589C169.129 18.6325 169.832 21.0403 169.832 24.0865V24.0906ZM157.106 18.7173C156.589 19.4001 156.278 20.2929 156.173 21.3959H165.376C165.34 20.2929 165 19.3395 164.35 18.5395C163.534 17.582 162.354 17.1013 160.807 17.1013C159.13 17.1013 157.894 17.6386 157.102 18.7173H157.106Z" fill="#F5F5F5" style="fill:#F5F5F5;fill:color(display-p3 0.9627 0.9627 0.9627);fill-opacity:1;"/>
<path d="M185.261 32.6637H180.498L178.106 29.157C178.022 29.0034 177.84 28.7004 177.557 28.248C177.274 27.7995 177.044 27.4197 176.866 27.1046L176.199 25.9896L175.86 26.5107C174.806 28.2116 174.264 29.0802 174.244 29.1166L171.889 32.6597H167.214L173.848 23.008L167.699 14.2532H172.446L174.729 17.562L175.969 19.5941L176.276 20.0789C176.672 19.4689 176.919 19.073 177.012 18.8912L177.82 17.5983L180.066 14.2532H184.777L178.628 23.008L185.261 32.6597V32.6637Z" fill="#F5F5F5" style="fill:#F5F5F5;fill:color(display-p3 0.9627 0.9627 0.9627);fill-opacity:1;"/>
<path d="M186.485 28.0621V17.7599H183.843V14.2532H186.485V9.13037H190.764V14.2532H194.558V17.7599H190.764V27.646C190.764 28.1631 190.913 28.5186 191.212 28.7166C191.511 28.9146 192.016 29.0115 192.723 29.0115C193.071 29.0115 193.632 28.9509 194.412 28.8297L194.485 32.6233C193.754 32.7688 192.946 32.8415 192.057 32.8415C190.198 32.8415 188.804 32.4537 187.879 31.682C186.95 30.9104 186.485 29.7024 186.485 28.0621Z" fill="#F5F5F5" style="fill:#F5F5F5;fill:color(display-p3 0.9627 0.9627 0.9627);fill-opacity:1;"/>
<path d="M23.4324 9.73255L23.7192 9.83759C24.2283 9.07402 24.8181 8.34681 25.4968 7.67212L23.4364 9.73255H23.4324ZM44.2104 29.1047L44.2751 29.2259L45.6608 27.8401C45.2002 28.2966 44.7154 28.7209 44.2104 29.1047ZM23.4324 9.73255L23.7192 9.83759C24.2283 9.07402 24.8181 8.34681 25.4968 7.67212L23.4364 9.73255H23.4324Z" fill="#00CA55" style="fill:#00CA55;fill:color(display-p3 0.0000 0.7922 0.3333);fill-opacity:1;"/>
<path d="M48.1333 5.19155C41.2086 -1.73312 29.9409 -1.73312 23.0162 5.19155C20.2124 7.99535 18.5479 11.5021 18.0146 15.1463C17.55 18.3137 17.9379 21.5861 19.1903 24.5839C19.6468 25.6989 20.2326 26.7736 20.9315 27.7957C21.5376 28.6805 22.2325 29.5208 23.0162 30.3086C23.9212 31.2096 24.9029 32.0055 25.9533 32.6801C26.9876 33.3548 28.0905 33.9164 29.2339 34.3527C31.2297 35.1163 33.3709 35.5122 35.5727 35.5122C36.4494 35.5122 37.3181 35.4476 38.1705 35.3264C41.9318 34.7769 45.4022 33.0438 48.1333 30.3086C55.062 23.384 55.062 12.1162 48.1333 5.19155ZM39.4431 4.03609C41.7258 4.66634 43.871 5.87836 45.6608 7.66811C47.402 9.40938 48.5939 11.486 49.2443 13.6878L43.5236 14.4999L38.8573 9.25181L39.4431 4.04013V4.03609ZM40.7925 16.6936L38.5543 21.9053L31.6741 21.1417L30.9267 14.9241L36.7403 12.1405L40.7885 16.6936H40.7925ZM25.4928 7.66811C28.2764 4.8845 31.9205 3.49876 35.5727 3.49876C35.7061 3.49876 35.8434 3.49876 35.9767 3.50684L35.3667 8.91649L29.2137 11.8577L23.7152 9.82954L23.4283 9.7245L25.4887 7.66407L25.4928 7.66811ZM24.0262 26.115C21.2346 22.2689 20.6043 17.3279 22.1395 12.9929L27.4037 14.9281L28.24 21.9013L24.0262 26.115ZM35.5727 32.0095C32.1872 32.0095 28.9794 30.8379 26.418 28.6764L30.5509 24.5435L38.1099 25.3797L41.1884 30.8702C39.4391 31.6217 37.5362 32.0095 35.5727 32.0095ZM45.6608 27.8361L44.275 29.2219L44.2104 29.1006L41.4187 24.1193L44.0609 17.9541L49.814 17.138C49.9796 20.9922 48.5939 24.899 45.6608 27.8361Z" fill="#00CA55" style="fill:#00CA55;fill:color(display-p3 0.0000 0.7922 0.3333);fill-opacity:1;"/>
<g opacity="0.45">
<path d="M23.0163 5.19165C20.2125 7.99545 18.548 11.5022 18.0147 15.1464L7.95092 25.2102L5.47437 22.7336L23.0163 5.19165Z" fill="#00CA55" style="fill:#00CA55;fill:color(display-p3 0.0000 0.7922 0.3333);fill-opacity:1;"/>
</g>
<g opacity="0.45">
<path d="M48.1334 30.3086L30.446 48L27.9695 45.5235L38.1706 35.3264C41.9319 34.7769 45.4024 33.0437 48.1334 30.3086Z" fill="#00CA55" style="fill:#00CA55;fill:color(display-p3 0.0000 0.7922 0.3333);fill-opacity:1;"/>
</g>
<g opacity="0.45">
<path d="M29.2339 34.3526L16.645 46.9415L14.1685 44.4649L25.9493 32.6841C26.9835 33.3588 28.0865 33.9203 29.2298 34.3567L29.2339 34.3526Z" fill="#00CA55" style="fill:#00CA55;fill:color(display-p3 0.0000 0.7922 0.3333);fill-opacity:1;"/>
</g>
<g opacity="0.45">
<path d="M20.9275 27.7997L2.47656 46.2507L0 43.7742L19.1863 24.5879C19.6428 25.7029 20.2286 26.7776 20.9275 27.7997Z" fill="#00CA55" style="fill:#00CA55;fill:color(display-p3 0.0000 0.7922 0.3333);fill-opacity:1;"/>
</g>
</g>
<defs>
<clipPath id="clip0_1200_6634">
<rect width="194.557" height="48" fill="white" style="fill:white;fill-opacity:1;"/>
</clipPath>
</defs>
</svg>
